<?xml version="1.0" encoding="UTF-8" standalone="no"?>
<!DOCTYPE svg PUBLIC "-//W3C//DTD SVG 1.1//EN"
 "http://www.w3.org/Graphics/SVG/1.1/DTD/svg11.dtd">
<!-- Generated by graphviz version 2.44.1 (20200629.0846)
 -->
<!-- Title: dependencies Pages: 1 -->
<svg width="1328pt" height="284pt"
 viewBox="0.00 0.00 1328.00 284.00" xmlns="http://www.w3.org/2000/svg" xmlns:xlink="http://www.w3.org/1999/xlink">
<g id="graph0" class="graph" transform="scale(1 1) rotate(0) translate(4 280)">
<title>dependencies</title>
<polygon fill="white" stroke="transparent" points="-4,4 -4,-280 1324,-280 1324,4 -4,4"/>
<text text-anchor="start" x="639.01" y="-42.4" font-family="sans-serif" font-weight="bold" font-size="14.00">Legend</text>
<polygon fill="#ffffb3" stroke="transparent" points="426,-10 426,-30 446,-30 446,-10 426,-10"/>
<text text-anchor="start" x="449.63" y="-15.4" font-family="sans-serif" font-size="14.00"> &#160;Declarations</text>
<polygon fill="#8dd3c7" stroke="transparent" points="539,-10 539,-30 559,-30 559,-10 539,-10"/>
<text text-anchor="start" x="562.73" y="-15.4" font-family="sans-serif" font-size="14.00"> &#160;Module</text>
<polygon fill="#80b1d3" stroke="transparent" points="625,-10 625,-30 645,-30 645,-10 625,-10"/>
<text text-anchor="start" x="648.78" y="-15.4" font-family="sans-serif" font-size="14.00"> &#160;Bootstrap</text>
<polygon fill="#fdb462" stroke="transparent" points="722,-10 722,-30 742,-30 742,-10 722,-10"/>
<text text-anchor="start" x="745.67" y="-15.4" font-family="sans-serif" font-size="14.00"> &#160;Providers</text>
<polygon fill="#fb8072" stroke="transparent" points="818,-10 818,-30 838,-30 838,-10 818,-10"/>
<text text-anchor="start" x="841.73" y="-15.4" font-family="sans-serif" font-size="14.00"> &#160;Exports</text>
<g id="clust1" class="cluster">
<title>cluster_AppModule</title>
<polygon fill="none" stroke="black" stroke-dasharray="1,5" points="8,-70 8,-268 1312,-268 1312,-70 8,-70"/>
</g>
<g id="clust11" class="cluster">
<title>cluster_AppModule_imports</title>
<polygon fill="none" stroke="black" points="1202,-78 1202,-130 1304,-130 1304,-78 1202,-78"/>
</g>
<g id="clust13" class="cluster">
<title>cluster_AppModule_bootstrap</title>
<polygon fill="none" stroke="black" points="634,-208 634,-260 758,-260 758,-208 634,-208"/>
</g>
<g id="clust2" class="cluster">
<title>cluster_AppModule_declarations</title>
<polygon fill="none" stroke="black" points="16,-78 16,-130 1194,-130 1194,-78 16,-78"/>
</g>
<!-- AdminComponent -->
<g id="node1" class="node">
<title>AdminComponent</title>
<polygon fill="#ffffb3" stroke="black" points="1186.22,-122 1065.78,-122 1065.78,-86 1186.22,-86 1186.22,-122"/>
<text text-anchor="middle" x="1126" y="-99.8" font-family="Times,serif" font-size="14.00">AdminComponent</text>
</g>
<!-- AppModule -->
<g id="node9" class="node">
<title>AppModule</title>
<polygon fill="#8dd3c7" stroke="black" points="737.66,-187 734.66,-191 713.66,-191 710.66,-187 654.34,-187 654.34,-151 737.66,-151 737.66,-187"/>
<text text-anchor="middle" x="696" y="-164.8" font-family="Times,serif" font-size="14.00">AppModule</text>
</g>
<!-- AdminComponent&#45;&gt;AppModule -->
<g id="edge1" class="edge">
<title>AdminComponent&#45;&gt;AppModule</title>
<path fill="none" stroke="black" d="M1126,-122.13C1126,-142.57 1126,-173 1126,-173 1126,-173 748.01,-173 748.01,-173"/>
<polygon fill="black" stroke="black" points="748.01,-169.5 738.01,-173 748.01,-176.5 748.01,-169.5"/>
</g>
<!-- AppComponent -->
<g id="node2" class="node">
<title>AppComponent</title>
<polygon fill="#ffffb3" stroke="black" points="1047.94,-122 942.06,-122 942.06,-86 1047.94,-86 1047.94,-122"/>
<text text-anchor="middle" x="995" y="-99.8" font-family="Times,serif" font-size="14.00">AppComponent</text>
</g>
<!-- AppComponent&#45;&gt;AppModule -->
<g id="edge2" class="edge">
<title>AppComponent&#45;&gt;AppModule</title>
<path fill="none" stroke="black" d="M995,-122.27C995,-140.56 995,-166 995,-166 995,-166 747.89,-166 747.89,-166"/>
<polygon fill="black" stroke="black" points="747.89,-162.5 737.89,-166 747.89,-169.5 747.89,-162.5"/>
</g>
<!-- InternationalComponent -->
<g id="node3" class="node">
<title>InternationalComponent</title>
<polygon fill="#ffffb3" stroke="black" points="924.36,-122 771.64,-122 771.64,-86 924.36,-86 924.36,-122"/>
<text text-anchor="middle" x="848" y="-99.8" font-family="Times,serif" font-size="14.00">InternationalComponent</text>
</g>
<!-- InternationalComponent&#45;&gt;AppModule -->
<g id="edge3" class="edge">
<title>InternationalComponent&#45;&gt;AppModule</title>
<path fill="none" stroke="black" d="M848,-122.01C848,-138.05 848,-159 848,-159 848,-159 747.94,-159 747.94,-159"/>
<polygon fill="black" stroke="black" points="747.94,-155.5 737.94,-159 747.94,-162.5 747.94,-155.5"/>
</g>
<!-- LoginComponent -->
<g id="node4" class="node">
<title>LoginComponent</title>
<polygon fill="#ffffb3" stroke="black" points="753.28,-122 638.72,-122 638.72,-86 753.28,-86 753.28,-122"/>
<text text-anchor="middle" x="696" y="-99.8" font-family="Times,serif" font-size="14.00">LoginComponent</text>
</g>
<!-- LoginComponent&#45;&gt;AppModule -->
<g id="edge4" class="edge">
<title>LoginComponent&#45;&gt;AppModule</title>
<path fill="none" stroke="black" d="M696,-122.11C696,-122.11 696,-140.99 696,-140.99"/>
<polygon fill="black" stroke="black" points="692.5,-140.99 696,-150.99 699.5,-140.99 692.5,-140.99"/>
</g>
<!-- NavigationComponent -->
<g id="node5" class="node">
<title>NavigationComponent</title>
<polygon fill="#ffffb3" stroke="black" points="620.54,-122 477.46,-122 477.46,-86 620.54,-86 620.54,-122"/>
<text text-anchor="middle" x="549" y="-99.8" font-family="Times,serif" font-size="14.00">NavigationComponent</text>
</g>
<!-- NavigationComponent&#45;&gt;AppModule -->
<g id="edge5" class="edge">
<title>NavigationComponent&#45;&gt;AppModule</title>
<path fill="none" stroke="black" d="M549,-122.01C549,-138.05 549,-159 549,-159 549,-159 644.27,-159 644.27,-159"/>
<polygon fill="black" stroke="black" points="644.27,-162.5 654.27,-159 644.27,-155.5 644.27,-162.5"/>
</g>
<!-- RoomsComponent -->
<g id="node6" class="node">
<title>RoomsComponent</title>
<polygon fill="#ffffb3" stroke="black" points="459.5,-122 338.5,-122 338.5,-86 459.5,-86 459.5,-122"/>
<text text-anchor="middle" x="399" y="-99.8" font-family="Times,serif" font-size="14.00">RoomsComponent</text>
</g>
<!-- RoomsComponent&#45;&gt;AppModule -->
<g id="edge6" class="edge">
<title>RoomsComponent&#45;&gt;AppModule</title>
<path fill="none" stroke="black" d="M399,-122.27C399,-140.56 399,-166 399,-166 399,-166 644.08,-166 644.08,-166"/>
<polygon fill="black" stroke="black" points="644.08,-169.5 654.08,-166 644.08,-162.5 644.08,-169.5"/>
</g>
<!-- SelectLanguageComponent -->
<g id="node7" class="node">
<title>SelectLanguageComponent</title>
<polygon fill="#ffffb3" stroke="black" points="320.24,-122 149.76,-122 149.76,-86 320.24,-86 320.24,-122"/>
<text text-anchor="middle" x="235" y="-99.8" font-family="Times,serif" font-size="14.00">SelectLanguageComponent</text>
</g>
<!-- SelectLanguageComponent&#45;&gt;AppModule -->
<g id="edge7" class="edge">
<title>SelectLanguageComponent&#45;&gt;AppModule</title>
<path fill="none" stroke="black" d="M235,-122.13C235,-142.57 235,-173 235,-173 235,-173 644.28,-173 644.28,-173"/>
<polygon fill="black" stroke="black" points="644.28,-176.5 654.28,-173 644.28,-169.5 644.28,-176.5"/>
</g>
<!-- StartComponent -->
<g id="node8" class="node">
<title>StartComponent</title>
<polygon fill="#ffffb3" stroke="black" points="131.77,-122 24.23,-122 24.23,-86 131.77,-86 131.77,-122"/>
<text text-anchor="middle" x="78" y="-99.8" font-family="Times,serif" font-size="14.00">StartComponent</text>
</g>
<!-- StartComponent&#45;&gt;AppModule -->
<g id="edge8" class="edge">
<title>StartComponent&#45;&gt;AppModule</title>
<path fill="none" stroke="black" d="M78,-122.01C78,-144.49 78,-180 78,-180 78,-180 644.01,-180 644.01,-180"/>
<polygon fill="black" stroke="black" points="644.01,-183.5 654.01,-180 644.01,-176.5 644.01,-183.5"/>
</g>
<!-- AppComponent  -->
<g id="node11" class="node">
<title>AppComponent </title>
<polygon fill="#80b1d3" stroke="black" points="750.44,-252 641.56,-252 641.56,-216 750.44,-216 750.44,-252"/>
<text text-anchor="middle" x="696" y="-229.8" font-family="Times,serif" font-size="14.00">AppComponent </text>
</g>
<!-- AppModule&#45;&gt;AppComponent  -->
<g id="edge10" class="edge">
<title>AppModule&#45;&gt;AppComponent </title>
<path fill="none" stroke="black" stroke-dasharray="1,5" d="M696,-187.11C696,-187.11 696,-205.99 696,-205.99"/>
<polygon fill="black" stroke="black" points="692.5,-205.99 696,-215.99 699.5,-205.99 692.5,-205.99"/>
</g>
<!-- I18nModule -->
<g id="node10" class="node">
<title>I18nModule</title>
<polygon fill="#8dd3c7" stroke="black" points="1295.71,-122 1292.71,-126 1271.71,-126 1268.71,-122 1210.29,-122 1210.29,-86 1295.71,-86 1295.71,-122"/>
<text text-anchor="middle" x="1253" y="-99.8" font-family="Times,serif" font-size="14.00">I18nModule</text>
</g>
<!-- I18nModule&#45;&gt;AppModule -->
<g id="edge9" class="edge">
<title>I18nModule&#45;&gt;AppModule</title>
<path fill="none" stroke="black" d="M1253,-122.01C1253,-144.49 1253,-180 1253,-180 1253,-180 747.87,-180 747.87,-180"/>
<polygon fill="black" stroke="black" points="747.87,-176.5 737.87,-180 747.87,-183.5 747.87,-176.5"/>
</g>
</g>
</svg>
