<?xml version="1.0" encoding="UTF-8" standalone="no"?>
<!DOCTYPE svg PUBLIC "-//W3C//DTD SVG 1.1//EN"
 "http://www.w3.org/Graphics/SVG/1.1/DTD/svg11.dtd">
<!-- Generated by graphviz version 2.44.1 (20200629.0846)
 -->
<!-- Title: dependencies Pages: 1 -->
<svg width="1328pt" height="284pt"
 viewBox="0.00 0.00 1328.00 284.00" xmlns="http://www.w3.org/2000/svg" xmlns:xlink="http://www.w3.org/1999/xlink">
<g id="graph0" class="graph" transform="scale(1 1) rotate(0) translate(4 280)">
<title>dependencies</title>
<polygon fill="white" stroke="transparent" points="-4,4 -4,-280 1324,-280 1324,4 -4,4"/>
<text text-anchor="start" x="639.01" y="-42.4" font-family="sans-serif" font-weight="bold" font-size="14.00">Legend</text>
<polygon fill="#ffffb3" stroke="transparent" points="426,-10 426,-30 446,-30 446,-10 426,-10"/>
<text text-anchor="start" x="449.63" y="-15.4" font-family="sans-serif" font-size="14.00"> &#160;Declarations</text>
<polygon fill="#8dd3c7" stroke="transparent" points="539,-10 539,-30 559,-30 559,-10 539,-10"/>
<text text-anchor="start" x="562.73" y="-15.4" font-family="sans-serif" font-size="14.00"> &#160;Module</text>
<polygon fill="#80b1d3" stroke="transparent" points="625,-10 625,-30 645,-30 645,-10 625,-10"/>
<text text-anchor="start" x="648.78" y="-15.4" font-family="sans-serif" font-size="14.00"> &#160;Bootstrap</text>
<polygon fill="#fdb462" stroke="transparent" points="722,-10 722,-30 742,-30 742,-10 722,-10"/>
<text text-anchor="start" x="745.67" y="-15.4" font-family="sans-serif" font-size="14.00"> &#160;Providers</text>
<polygon fill="#fb8072" stroke="transparent" points="818,-10 818,-30 838,-30 838,-10 818,-10"/>
<text text-anchor="start" x="841.73" y="-15.4" font-family="sans-serif" font-size="14.00"> &#160;Exports</text>
<g id="clust1" class="cluster">
<title>cluster_AppModule</title>
<polygon fill="none" stroke="black" stroke-dasharray="1,5" points="8,-70 8,-268 1312,-268 1312,-70 8,-70"/>
</g>
<g id="clust2" class="cluster">
<title>cluster_AppModule_declarations</title>
<polygon fill="none" stroke="black" points="126,-78 126,-130 1304,-130 1304,-78 126,-78"/>
</g>
<g id="clust11" class="cluster">
<title>cluster_AppModule_imports</title>
<polygon fill="none" stroke="black" points="16,-78 16,-130 118,-130 118,-78 16,-78"/>
</g>
<g id="clust13" class="cluster">
<title>cluster_AppModule_bootstrap</title>
<polygon fill="none" stroke="black" points="597,-208 597,-260 721,-260 721,-208 597,-208"/>
</g>
<!-- AdminComponent -->
<g id="node1" class="node">
<title>AdminComponent</title>
<polygon fill="#ffffb3" stroke="black" points="1296.22,-122 1175.78,-122 1175.78,-86 1296.22,-86 1296.22,-122"/>
<text text-anchor="middle" x="1236" y="-99.8" font-family="Times,serif" font-size="14.00">AdminComponent</text>
</g>
<!-- AppModule -->
<g id="node9" class="node">
<title>AppModule</title>
<polygon fill="#8dd3c7" stroke="black" points="700.66,-187 697.66,-191 676.66,-191 673.66,-187 617.34,-187 617.34,-151 700.66,-151 700.66,-187"/>
<text text-anchor="middle" x="659" y="-164.8" font-family="Times,serif" font-size="14.00">AppModule</text>
</g>
<!-- AdminComponent&#45;&gt;AppModule -->
<g id="edge1" class="edge">
<title>AdminComponent&#45;&gt;AppModule</title>
<path fill="none" stroke="black" d="M1236,-122.01C1236,-144.49 1236,-180 1236,-180 1236,-180 710.96,-180 710.96,-180"/>
<polygon fill="black" stroke="black" points="710.96,-176.5 700.96,-180 710.96,-183.5 710.96,-176.5"/>
</g>
<!-- AppComponent -->
<g id="node2" class="node">
<title>AppComponent</title>
<polygon fill="#ffffb3" stroke="black" points="1157.94,-122 1052.06,-122 1052.06,-86 1157.94,-86 1157.94,-122"/>
<text text-anchor="middle" x="1105" y="-99.8" font-family="Times,serif" font-size="14.00">AppComponent</text>
</g>
<!-- AppComponent&#45;&gt;AppModule -->
<g id="edge2" class="edge">
<title>AppComponent&#45;&gt;AppModule</title>
<path fill="none" stroke="black" d="M1105,-122.13C1105,-142.57 1105,-173 1105,-173 1105,-173 710.96,-173 710.96,-173"/>
<polygon fill="black" stroke="black" points="710.96,-169.5 700.96,-173 710.96,-176.5 710.96,-169.5"/>
</g>
<!-- InternationalComponent -->
<g id="node3" class="node">
<title>InternationalComponent</title>
<polygon fill="#ffffb3" stroke="black" points="1034.36,-122 881.64,-122 881.64,-86 1034.36,-86 1034.36,-122"/>
<text text-anchor="middle" x="958" y="-99.8" font-family="Times,serif" font-size="14.00">InternationalComponent</text>
</g>
<!-- InternationalComponent&#45;&gt;AppModule -->
<g id="edge3" class="edge">
<title>InternationalComponent&#45;&gt;AppModule</title>
<path fill="none" stroke="black" d="M958,-122.27C958,-140.56 958,-166 958,-166 958,-166 710.89,-166 710.89,-166"/>
<polygon fill="black" stroke="black" points="710.89,-162.5 700.89,-166 710.89,-169.5 710.89,-162.5"/>
</g>
<!-- LoginComponent -->
<g id="node4" class="node">
<title>LoginComponent</title>
<polygon fill="#ffffb3" stroke="black" points="863.28,-122 748.72,-122 748.72,-86 863.28,-86 863.28,-122"/>
<text text-anchor="middle" x="806" y="-99.8" font-family="Times,serif" font-size="14.00">LoginComponent</text>
</g>
<!-- LoginComponent&#45;&gt;AppModule -->
<g id="edge4" class="edge">
<title>LoginComponent&#45;&gt;AppModule</title>
<path fill="none" stroke="black" d="M806,-122.01C806,-138.05 806,-159 806,-159 806,-159 710.73,-159 710.73,-159"/>
<polygon fill="black" stroke="black" points="710.73,-155.5 700.73,-159 710.73,-162.5 710.73,-155.5"/>
</g>
<!-- NavigationComponent -->
<g id="node5" class="node">
<title>NavigationComponent</title>
<polygon fill="#ffffb3" stroke="black" points="730.54,-122 587.46,-122 587.46,-86 730.54,-86 730.54,-122"/>
<text text-anchor="middle" x="659" y="-99.8" font-family="Times,serif" font-size="14.00">NavigationComponent</text>
</g>
<!-- NavigationComponent&#45;&gt;AppModule -->
<g id="edge5" class="edge">
<title>NavigationComponent&#45;&gt;AppModule</title>
<path fill="none" stroke="black" d="M659,-122.11C659,-122.11 659,-140.99 659,-140.99"/>
<polygon fill="black" stroke="black" points="655.5,-140.99 659,-150.99 662.5,-140.99 655.5,-140.99"/>
</g>
<!-- RoomsComponent -->
<g id="node6" class="node">
<title>RoomsComponent</title>
<polygon fill="#ffffb3" stroke="black" points="569.5,-122 448.5,-122 448.5,-86 569.5,-86 569.5,-122"/>
<text text-anchor="middle" x="509" y="-99.8" font-family="Times,serif" font-size="14.00">RoomsComponent</text>
</g>
<!-- RoomsComponent&#45;&gt;AppModule -->
<g id="edge6" class="edge">
<title>RoomsComponent&#45;&gt;AppModule</title>
<path fill="none" stroke="black" d="M509,-122.01C509,-138.05 509,-159 509,-159 509,-159 607.22,-159 607.22,-159"/>
<polygon fill="black" stroke="black" points="607.22,-162.5 617.22,-159 607.22,-155.5 607.22,-162.5"/>
</g>
<!-- SelectLanguageComponent -->
<g id="node7" class="node">
<title>SelectLanguageComponent</title>
<polygon fill="#ffffb3" stroke="black" points="430.24,-122 259.76,-122 259.76,-86 430.24,-86 430.24,-122"/>
<text text-anchor="middle" x="345" y="-99.8" font-family="Times,serif" font-size="14.00">SelectLanguageComponent</text>
</g>
<!-- SelectLanguageComponent&#45;&gt;AppModule -->
<g id="edge7" class="edge">
<title>SelectLanguageComponent&#45;&gt;AppModule</title>
<path fill="none" stroke="black" d="M345,-122.27C345,-140.56 345,-166 345,-166 345,-166 607.3,-166 607.3,-166"/>
<polygon fill="black" stroke="black" points="607.3,-169.5 617.3,-166 607.3,-162.5 607.3,-169.5"/>
</g>
<!-- StartComponent -->
<g id="node8" class="node">
<title>StartComponent</title>
<polygon fill="#ffffb3" stroke="black" points="241.77,-122 134.23,-122 134.23,-86 241.77,-86 241.77,-122"/>
<text text-anchor="middle" x="188" y="-99.8" font-family="Times,serif" font-size="14.00">StartComponent</text>
</g>
<!-- StartComponent&#45;&gt;AppModule -->
<g id="edge8" class="edge">
<title>StartComponent&#45;&gt;AppModule</title>
<path fill="none" stroke="black" d="M188,-122.13C188,-142.57 188,-173 188,-173 188,-173 607.2,-173 607.2,-173"/>
<polygon fill="black" stroke="black" points="607.2,-176.5 617.2,-173 607.2,-169.5 607.2,-176.5"/>
</g>
<!-- AppComponent  -->
<g id="node11" class="node">
<title>AppComponent </title>
<polygon fill="#80b1d3" stroke="black" points="713.44,-252 604.56,-252 604.56,-216 713.44,-216 713.44,-252"/>
<text text-anchor="middle" x="659" y="-229.8" font-family="Times,serif" font-size="14.00">AppComponent </text>
</g>
<!-- AppModule&#45;&gt;AppComponent  -->
<g id="edge10" class="edge">
<title>AppModule&#45;&gt;AppComponent </title>
<path fill="none" stroke="black" stroke-dasharray="1,5" d="M659,-187.11C659,-187.11 659,-205.99 659,-205.99"/>
<polygon fill="black" stroke="black" points="655.5,-205.99 659,-215.99 662.5,-205.99 655.5,-205.99"/>
</g>
<!-- I18nModule -->
<g id="node10" class="node">
<title>I18nModule</title>
<polygon fill="#8dd3c7" stroke="black" points="109.71,-122 106.71,-126 85.71,-126 82.71,-122 24.29,-122 24.29,-86 109.71,-86 109.71,-122"/>
<text text-anchor="middle" x="67" y="-99.8" font-family="Times,serif" font-size="14.00">I18nModule</text>
</g>
<!-- I18nModule&#45;&gt;AppModule -->
<g id="edge9" class="edge">
<title>I18nModule&#45;&gt;AppModule</title>
<path fill="none" stroke="black" d="M67,-122.01C67,-144.49 67,-180 67,-180 67,-180 606.9,-180 606.9,-180"/>
<polygon fill="black" stroke="black" points="606.9,-183.5 616.9,-180 606.9,-176.5 606.9,-183.5"/>
</g>
</g>
</svg>
